<?xml version="1.0" encoding="utf-8"?>
<!-- Generator: Adobe Illustrator 19.1.0, SVG Export Plug-In . SVG Version: 6.00 Build 0)  -->
<!DOCTYPE svg PUBLIC "-//W3C//DTD SVG 1.1//EN" "http://www.w3.org/Graphics/SVG/1.1/DTD/svg11.dtd">
<svg version="1.1" id="Layer_1" xmlns="http://www.w3.org/2000/svg" xmlns:xlink="http://www.w3.org/1999/xlink" x="0px" y="0px"
	 width="20px" height="20px" viewBox="0 0 20 20" enable-background="new 0 0 20 20" xml:space="preserve">
<path d="M13,14v-2c2.8,0,5-2.2,5-5s-2.2-5-5-5c-2.3,0-4.3,1.6-4.9,3.9C8.1,6.2,7.8,6.4,7.5,6.6C7.2,6.7,6.9,6.7,6.6,6.5
	C6.1,6.2,5.6,6,5,6C3.3,6,2,7.3,2,9s1.3,3,3,3h2v2H5c-2.8,0-5-2.2-5-5s2.2-5,5-5c0.5,0,1.1,0.1,1.6,0.3C7.6,1.7,10.1,0,13,0
	c3.9,0,7,3.1,7,7S16.9,14,13,14z"/>
<path d="M13.7,15.3c-0.4-0.4-1-0.4-1.4,0L11,16.6V10c0-0.6-0.4-1-1-1s-1,0.4-1,1v6.6l-1.3-1.3c-0.4-0.4-1-0.4-1.4,0s-0.4,1,0,1.4
	l3,3C9.5,19.9,9.7,20,10,20s0.5-0.1,0.7-0.3l3-3C14.1,16.3,14.1,15.7,13.7,15.3z"/>
</svg>
